{"glyphs":{"\r":{"ha":0,"x_min":0,"x_max":0,"o":""},"\u0000":{"ha":0,"x_min":0,"x_max":0,"o":""}," ":{"ha":268,"x_min":0,"x_max":0,"o":""},"Ą":{"ha":891,"x_min":-50,"x_max":874,"o":"m 843 -132 q 858 -143 856 -132 l 874 -204 q 819 -230 852 -219 q 750 -240 785 -240 q 660 -214 691 -240 q 630 -149 630 -188 q 658 -69 630 -107 q 738 0 685 -31 l 719 0 q 682 11 696 0 q 665 41 668 22 l 623 251 l 249 251 l 156 41 q 131 13 148 25 q 92 0 113 0 l -50 0 l 435 1004 l 619 1004 l 859 0 l 836 0 q 807 -18 822 -8 q 782 -42 793 -29 q 765 -71 772 -56 q 758 -103 758 -86 q 768 -132 758 -121 q 796 -143 778 -143 q 815 -141 808 -143 q 828 -137 823 -140 q 836 -134 833 -135 q 843 -132 840 -132 m 305 378 l 597 378 l 529 722 q 519 773 525 744 q 508 837 513 802 q 482 773 494 802 q 458 721 469 743 l 305 378 z "},"ą":{"ha":724,"x_min":26,"x_max":682,"o":"m 587 -132 q 601 -143 599 -132 l 618 -204 q 563 -230 596 -219 q 494 -240 529 -240 q 404 -214 435 -240 q 374 -149 374 -188 q 402 -68 374 -107 q 485 2 431 -29 q 457 22 465 8 q 449 57 449 37 l 455 149 q 349 32 408 75 q 219 -10 290 -10 q 143 6 178 -10 q 82 53 108 22 q 41 132 56 85 q 26 244 26 180 q 42 368 26 308 q 88 482 58 428 q 159 579 117 535 q 252 656 201 624 q 364 705 304 688 q 491 723 424 723 q 587 716 539 723 q 682 691 635 709 l 596 0 l 580 0 q 551 -18 565 -8 q 526 -42 537 -29 q 508 -71 515 -56 q 501 -103 501 -86 q 511 -132 501 -121 q 540 -143 522 -143 q 559 -141 551 -143 q 572 -137 567 -140 q 580 -134 577 -135 q 587 -132 583 -132 m 286 130 q 342 149 315 130 q 394 203 369 169 q 439 284 418 238 q 475 384 460 331 l 502 599 q 467 601 483 601 q 360 575 410 601 q 275 504 311 549 q 218 400 239 459 q 198 274 198 340 q 222 165 198 199 q 286 130 245 130 z "},"Ć":{"ha":854,"x_min":51,"x_max":885,"o":"m 471 142 q 545 148 513 142 q 600 165 576 155 q 640 187 623 176 q 669 209 656 199 q 691 226 681 219 q 710 233 701 233 q 724 229 719 233 q 733 222 730 226 l 797 144 q 643 29 731 69 q 440 -11 555 -11 q 276 22 348 -11 q 153 113 203 55 q 77 251 103 172 q 51 426 51 331 q 70 590 51 513 q 124 733 89 667 q 207 851 158 799 q 315 940 256 903 q 442 996 374 976 q 585 1015 510 1015 q 685 1005 640 1015 q 767 977 730 995 q 833 934 803 959 q 885 877 862 908 l 823 802 q 807 788 816 794 q 783 781 797 781 q 754 794 768 781 q 719 821 740 806 q 664 849 698 836 q 576 861 631 861 q 442 832 503 861 q 334 747 380 802 q 262 615 288 692 q 236 441 236 538 q 254 315 236 371 q 303 221 272 260 q 377 162 334 183 q 471 142 420 142 m 872 1242 l 674 1099 q 643 1082 658 1088 q 610 1076 628 1076 l 476 1076 l 617 1216 q 633 1230 626 1224 q 648 1238 640 1235 q 666 1241 656 1240 q 689 1242 675 1242 l 872 1242 z "},"ć":{"ha":605,"x_min":35,"x_max":649,"o":"m 582 126 q 514 61 547 88 q 449 19 482 35 q 378 -4 415 3 q 298 -10 342 -10 q 187 11 236 -10 q 104 71 138 32 q 52 165 70 110 q 35 287 35 219 q 63 452 35 374 q 140 591 90 531 q 259 687 190 651 q 409 723 328 723 q 530 698 480 723 q 618 623 579 673 l 563 558 q 549 546 557 551 q 531 541 541 541 q 510 548 519 541 q 487 564 500 556 q 455 580 474 572 q 406 587 436 587 q 330 565 366 587 q 266 504 294 544 q 223 409 239 465 q 206 286 206 353 q 241 165 206 208 q 335 122 276 122 q 400 134 374 122 q 444 159 426 145 q 477 184 463 172 q 508 195 491 195 q 524 191 516 195 q 538 179 532 186 l 582 126 l 582 126 m 649 1016 l 467 835 q 440 816 453 821 q 409 811 428 811 l 310 811 l 422 980 q 448 1007 433 998 q 488 1016 462 1016 l 649 1016 z "},"Ę":{"ha":730,"x_min":49,"x_max":758,"o":"m 572 -132 q 586 -143 584 -132 l 603 -204 q 547 -230 581 -219 q 478 -240 514 -240 q 389 -214 419 -240 q 358 -149 358 -188 q 386 -69 358 -107 q 466 0 414 -31 l 49 0 l 172 1004 l 758 1004 l 740 860 l 335 860 l 301 575 l 618 575 l 601 437 l 283 437 l 247 144 l 653 144 l 635 0 l 565 0 q 536 -18 550 -8 q 511 -42 522 -29 q 493 -71 500 -56 q 486 -103 486 -86 q 496 -132 486 -121 q 524 -143 506 -143 q 544 -141 536 -143 q 557 -137 551 -140 q 565 -134 562 -135 q 572 -132 568 -132 z "},"ę":{"ha":657,"x_min":34,"x_max":638,"o":"m 410 -132 q 424 -143 422 -132 l 441 -204 q 385 -230 419 -219 q 317 -240 352 -240 q 227 -214 258 -240 q 197 -149 197 -188 q 220 -75 197 -110 q 289 -10 244 -40 q 184 16 231 -6 q 103 77 137 39 q 52 168 70 115 q 34 285 34 221 q 46 396 34 342 q 81 499 58 450 q 138 588 104 547 q 213 659 171 629 q 305 706 255 689 q 413 722 356 722 q 511 706 469 722 q 582 665 553 690 q 624 608 610 640 q 638 547 638 577 q 618 460 638 499 q 550 389 599 420 q 416 335 501 358 q 201 299 332 313 l 201 290 q 344 122 201 122 q 398 128 374 122 q 439 142 422 134 q 471 161 457 151 q 498 180 485 172 q 522 194 510 188 q 547 200 533 200 q 564 196 556 200 q 578 185 572 192 l 622 132 q 513 43 566 76 q 399 -2 460 10 q 371 -20 385 -10 q 347 -44 358 -31 q 331 -72 337 -57 q 324 -103 324 -86 q 334 -132 324 -121 q 363 -143 344 -143 q 382 -141 374 -143 q 395 -137 390 -140 q 403 -134 400 -135 q 410 -132 406 -132 m 403 603 q 339 589 369 603 q 285 549 309 574 q 243 487 261 523 q 215 409 226 451 q 354 435 301 421 q 435 465 406 449 q 473 501 464 482 q 483 541 483 519 q 478 563 483 551 q 464 582 474 574 q 440 597 455 591 q 403 603 425 603 z "},"Ł":{"ha":706,"x_min":8,"x_max":656,"o":"m 347 606 l 580 724 l 565 603 q 556 582 563 590 q 538 567 549 573 l 328 456 l 291 149 l 656 149 l 639 0 l 93 0 l 138 370 l 8 306 l 24 429 q 47 463 26 452 l 156 518 l 217 1004 l 397 1004 l 347 606 z "},"ł":{"ha":440,"x_min":50,"x_max":448,"o":"m 50 512 q 71 545 50 536 l 163 584 l 217 1032 l 386 1032 l 339 647 l 448 691 l 448 592 q 424 555 448 565 l 323 511 l 261 0 l 92 0 l 147 449 l 50 410 l 50 512 z "},"Ń":{"ha":967,"x_min":49,"x_max":958,"o":"m 267 1004 q 286 1003 278 1004 q 301 999 294 1002 q 312 990 307 996 q 322 975 317 985 l 713 290 q 716 329 715 310 q 720 365 718 348 l 799 1004 l 958 1004 l 833 0 l 741 0 q 706 7 720 0 q 681 31 691 13 l 292 717 q 290 684 291 700 q 287 655 288 669 l 208 0 l 49 0 l 172 1004 l 267 1004 l 267 1004 m 853 1242 l 656 1099 q 624 1082 640 1088 q 591 1076 609 1076 l 457 1076 l 599 1216 q 614 1230 607 1224 q 630 1238 622 1235 q 647 1241 638 1240 q 670 1242 656 1242 l 853 1242 z "},"ń":{"ha":748,"x_min":36,"x_max":694,"o":"m 36 0 l 122 713 l 209 713 q 251 700 236 713 q 266 658 266 687 l 261 565 q 381 684 315 645 q 517 724 447 724 q 589 709 557 724 q 644 668 622 695 q 680 600 667 640 q 692 508 692 560 q 691 482 692 495 q 689 453 690 468 l 635 0 l 464 0 q 488 199 478 117 q 503 335 497 281 q 513 420 510 389 q 518 467 517 451 q 520 488 520 483 q 521 497 521 493 q 504 563 521 542 q 452 583 488 583 q 393 567 424 583 q 335 519 363 550 q 284 446 307 489 q 247 350 261 403 l 208 0 l 36 0 m 694 1016 l 512 835 q 485 816 498 821 q 454 811 473 811 l 356 811 l 467 980 q 493 1007 478 998 q 533 1016 507 1016 l 694 1016 z "},"Ś":{"ha":687,"x_min":-7,"x_max":748,"o":"m 649 824 q 630 803 640 810 q 606 797 620 797 q 578 808 592 797 q 543 832 563 819 q 495 857 523 846 q 429 868 468 868 q 362 857 391 868 q 313 826 333 846 q 283 781 293 807 q 273 724 273 754 q 289 670 273 692 q 332 633 306 649 q 392 605 358 617 q 461 578 426 592 q 531 547 497 565 q 591 502 565 528 q 634 439 617 476 q 650 349 650 401 q 625 210 650 275 q 552 95 599 144 q 436 18 504 47 q 284 -11 369 -11 q 198 -2 240 -11 q 118 25 156 8 q 49 67 81 42 q -7 121 17 91 l 57 207 q 76 223 65 217 q 100 229 88 229 q 122 222 111 229 q 145 205 133 215 q 173 183 158 195 q 208 161 188 171 q 251 144 227 151 q 308 137 276 137 q 431 181 386 137 q 475 304 475 226 q 459 361 475 339 q 417 399 443 383 q 357 425 390 414 q 289 450 324 437 q 220 480 253 463 q 160 523 187 497 q 118 589 134 550 q 102 685 102 628 q 126 809 102 749 q 194 914 150 869 q 302 987 239 960 q 446 1015 366 1015 q 525 1006 487 1015 q 595 983 563 998 q 655 946 628 967 q 703 899 683 925 l 649 824 m 748 1242 l 551 1099 q 519 1082 535 1088 q 486 1076 504 1076 l 352 1076 l 494 1216 q 509 1230 502 1224 q 525 1238 517 1235 q 542 1241 533 1240 q 565 1242 551 1242 l 748 1242 z "},"ś":{"ha":545,"x_min":-6,"x_max":600,"o":"m 509 578 q 494 563 501 567 q 476 558 488 558 q 452 565 465 558 q 423 581 440 572 q 386 597 407 590 q 335 603 365 603 q 251 579 280 603 q 222 517 222 554 q 234 481 222 496 q 265 455 246 466 q 310 434 285 444 q 361 414 335 425 q 413 390 388 403 q 457 357 438 376 q 489 310 476 338 q 501 244 501 283 q 480 147 501 193 q 422 65 460 100 q 329 9 383 30 q 208 -11 275 -11 q 143 -5 174 -11 q 83 14 111 2 q 33 42 56 26 q -6 76 10 58 l 36 142 q 55 160 44 153 q 80 166 65 166 q 106 157 94 166 q 134 137 118 148 q 173 117 150 126 q 231 108 195 108 q 281 116 259 108 q 318 137 303 124 q 340 167 333 150 q 348 204 348 185 q 336 243 348 228 q 305 270 324 259 q 260 291 285 282 q 209 309 235 299 q 158 331 183 319 q 114 363 133 344 q 82 409 94 382 q 70 476 70 437 q 88 568 70 524 q 141 648 106 613 q 227 703 176 682 q 344 724 278 724 q 465 700 413 724 q 553 641 517 677 l 509 578 m 600 1016 l 418 835 q 392 816 404 821 q 360 811 379 811 l 262 811 l 373 980 q 399 1007 385 998 q 440 1016 413 1016 l 600 1016 z "},"Š":{"ha":687,"x_min":-7,"x_max":713,"o":"m 649 824 q 630 803 640 810 q 606 797 620 797 q 578 808 592 797 q 543 832 563 819 q 495 857 523 846 q 429 868 468 868 q 362 857 391 868 q 313 826 333 846 q 283 781 293 807 q 273 724 273 754 q 289 670 273 692 q 332 633 306 649 q 392 605 358 617 q 461 578 426 592 q 531 547 497 565 q 591 502 565 528 q 634 439 617 476 q 650 349 650 401 q 625 210 650 275 q 552 95 599 144 q 436 18 504 47 q 284 -11 369 -11 q 198 -2 240 -11 q 118 25 156 8 q 49 67 81 42 q -7 121 17 91 l 57 207 q 76 223 65 217 q 100 229 88 229 q 122 222 111 229 q 145 205 133 215 q 173 183 158 195 q 208 161 188 171 q 251 144 227 151 q 308 137 276 137 q 431 181 386 137 q 475 304 475 226 q 459 361 475 339 q 417 399 443 383 q 357 425 390 414 q 289 450 324 437 q 220 480 253 463 q 160 523 187 497 q 118 589 134 550 q 102 685 102 628 q 126 809 102 749 q 194 914 150 869 q 302 987 239 960 q 446 1015 366 1015 q 525 1006 487 1015 q 595 983 563 998 q 655 946 628 967 q 703 899 683 925 l 649 824 m 238 1227 l 389 1227 l 467 1159 l 563 1227 l 713 1227 l 540 1076 l 374 1076 l 238 1227 z "},"š":{"ha":545,"x_min":-6,"x_max":596,"o":"m 509 578 q 494 563 501 567 q 476 558 488 558 q 452 565 465 558 q 423 581 440 572 q 386 597 407 590 q 335 603 365 603 q 251 579 280 603 q 222 517 222 554 q 234 481 222 496 q 265 455 246 466 q 310 434 285 444 q 361 414 335 425 q 413 390 388 403 q 457 357 438 376 q 489 310 476 338 q 501 244 501 283 q 480 147 501 193 q 422 65 460 100 q 329 9 383 30 q 208 -11 275 -11 q 143 -5 174 -11 q 83 14 111 2 q 33 42 56 26 q -6 76 10 58 l 36 142 q 55 160 44 153 q 80 166 65 166 q 106 157 94 166 q 134 137 118 148 q 173 117 150 126 q 231 108 195 108 q 281 116 259 108 q 318 137 303 124 q 340 167 333 150 q 348 204 348 185 q 336 243 348 228 q 305 270 324 259 q 260 291 285 282 q 209 309 235 299 q 158 331 183 319 q 114 363 133 344 q 82 409 94 382 q 70 476 70 437 q 88 568 70 524 q 141 648 106 613 q 227 703 176 682 q 344 724 278 724 q 465 700 413 724 q 553 641 517 677 l 509 578 m 425 813 l 270 813 l 147 1005 l 261 1005 q 280 1001 271 1005 q 292 992 288 997 l 349 923 q 361 907 355 916 q 370 916 365 912 q 378 923 374 919 l 451 992 q 466 1001 456 998 q 486 1005 476 1005 l 596 1005 l 425 813 z "},"Ÿ":{"ha":842,"x_min":76,"x_max":929,"o":"m 517 391 l 469 0 l 288 0 l 337 392 l 76 1004 l 236 1004 q 272 993 260 1004 q 292 963 285 981 l 422 616 q 437 567 431 591 q 447 520 443 543 q 471 567 458 543 q 500 616 484 590 l 716 963 q 741 992 726 979 q 780 1004 757 1004 l 929 1004 l 517 391 m 481 1156 q 474 1124 481 1139 q 456 1098 467 1109 q 429 1080 444 1087 q 396 1074 413 1074 q 364 1080 379 1074 q 338 1098 349 1087 q 320 1124 326 1109 q 313 1156 313 1139 q 320 1189 313 1173 q 338 1216 326 1204 q 364 1234 349 1227 q 396 1240 379 1240 q 429 1234 413 1240 q 456 1216 444 1227 q 474 1189 467 1204 q 481 1156 481 1173 m 725 1156 q 718 1124 725 1139 q 700 1098 712 1109 q 674 1080 689 1087 q 641 1074 658 1074 q 609 1080 624 1074 q 582 1098 594 1087 q 564 1124 571 1109 q 558 1156 558 1139 q 564 1189 558 1173 q 582 1216 571 1204 q 609 1234 594 1227 q 641 1240 624 1240 q 674 1234 658 1240 q 700 1216 689 1227 q 718 1189 712 1204 q 725 1156 725 1173 z "},"Ź":{"ha":787,"x_min":-5,"x_max":836,"o":"m 836 1004 l 828 948 q 822 926 827 936 q 808 905 816 915 l 253 144 l 719 144 l 701 0 l -5 0 l 2 55 q 9 77 3 67 q 22 98 14 88 l 578 860 l 132 860 l 149 1004 l 836 1004 m 787 1242 l 590 1099 q 558 1081 574 1087 q 525 1075 543 1075 l 391 1075 l 533 1215 q 548 1229 541 1224 q 564 1237 556 1234 q 581 1241 572 1240 q 604 1242 590 1242 l 787 1242 z "},"ź":{"ha":608,"x_min":-1,"x_max":618,"o":"m 603 642 q 594 606 601 624 q 576 578 587 589 l 219 132 l 533 132 l 517 0 l -1 0 l 8 72 q 17 100 10 83 q 36 131 24 117 l 395 581 l 89 581 l 105 713 l 613 713 l 603 642 m 618 1016 l 436 835 q 410 816 422 821 q 378 811 397 811 l 280 811 l 391 980 q 417 1007 403 998 q 458 1016 431 1016 l 618 1016 z "},"Ż":{"ha":787,"x_min":-5,"x_max":836,"o":"m 836 1004 l 828 948 q 822 926 827 936 q 808 905 816 915 l 253 144 l 719 144 l 701 0 l -5 0 l 2 55 q 9 77 3 67 q 22 98 14 88 l 578 860 l 132 860 l 149 1004 l 836 1004 m 613 1177 q 604 1138 613 1156 q 581 1105 595 1119 q 547 1083 566 1091 q 506 1074 527 1074 q 467 1083 485 1074 q 434 1105 448 1091 q 411 1138 419 1119 q 403 1177 403 1156 q 411 1218 403 1199 q 434 1251 419 1237 q 467 1274 448 1265 q 506 1282 485 1282 q 547 1274 527 1282 q 581 1251 566 1265 q 604 1218 595 1237 q 613 1177 613 1199 z "},"ż":{"ha":608,"x_min":-1,"x_max":613,"o":"m 603 642 q 594 606 601 624 q 576 578 587 589 l 219 132 l 533 132 l 517 0 l -1 0 l 8 72 q 17 100 10 83 q 36 131 24 117 l 395 581 l 89 581 l 105 713 l 613 713 l 603 642 m 495 924 q 486 882 495 902 q 462 848 477 863 q 426 825 447 833 q 383 816 406 816 q 341 825 361 816 q 307 848 322 833 q 284 882 292 863 q 275 924 275 902 q 284 967 275 947 q 307 1002 292 987 q 341 1025 322 1017 q 383 1034 361 1034 q 426 1025 406 1034 q 462 1002 447 1017 q 486 967 477 987 q 495 924 495 947 z "},"Ž":{"ha":787,"x_min":-5,"x_max":836,"o":"m 836 1004 l 828 948 q 822 926 827 936 q 808 905 816 915 l 253 144 l 719 144 l 701 0 l -5 0 l 2 55 q 9 77 3 67 q 22 98 14 88 l 578 860 l 132 860 l 149 1004 l 836 1004 m 285 1226 l 435 1226 l 514 1158 l 609 1226 l 760 1226 l 586 1075 l 421 1075 l 285 1226 z "},"ž":{"ha":608,"x_min":-1,"x_max":614,"o":"m 603 642 q 594 606 601 624 q 576 578 587 589 l 219 132 l 533 132 l 517 0 l -1 0 l 8 72 q 17 100 10 83 q 36 131 24 117 l 395 581 l 89 581 l 105 713 l 613 713 l 603 642 m 443 813 l 288 813 l 165 1005 l 279 1005 q 298 1001 289 1005 q 310 992 306 997 l 367 923 q 379 907 373 916 q 388 916 383 912 q 396 923 392 919 l 469 992 q 484 1001 474 998 q 504 1005 494 1005 l 614 1005 l 443 813 z "},"ƒ":{"ha":806,"x_min":-2,"x_max":795,"o":"m 510 519 l 392 38 q 342 -88 374 -35 q 261 -175 310 -141 q 147 -224 212 -208 q -2 -240 81 -240 l 9 -154 q 68 -103 15 -103 q 122 -95 97 -103 q 167 -70 147 -87 q 204 -25 188 -53 q 229 42 219 2 l 346 516 l 258 528 q 226 563 226 536 q 226 566 226 564 q 226 569 226 568 l 234 638 l 376 638 l 401 742 q 531 951 435 881 q 795 1021 626 1021 l 784 930 q 766 893 781 903 q 725 883 752 883 q 671 875 697 883 q 624 850 645 867 q 586 805 603 833 q 560 738 570 777 l 534 638 l 742 638 l 727 519 l 510 519 z "},"†":{"ha":742,"x_min":82,"x_max":734,"o":"m 89 656 q 97 682 90 669 q 114 705 103 694 q 140 720 124 715 q 175 726 155 726 q 216 723 194 726 q 259 716 237 720 q 306 706 282 711 q 352 697 329 701 l 370 1017 q 411 1032 388 1026 q 458 1038 434 1038 q 540 1017 508 1038 l 481 697 q 529 706 504 701 q 577 716 553 711 q 623 723 601 720 q 665 726 645 726 q 718 708 702 726 q 734 665 734 690 q 734 662 734 664 q 733 653 734 660 q 731 635 733 647 q 726 601 729 622 l 469 601 l 435 328 l 389 -226 q 347 -241 369 -236 q 300 -247 324 -247 q 255 -241 276 -247 q 218 -226 234 -236 l 307 328 l 340 601 l 82 601 l 89 656 z "}}}
